
      <svg data-logo="logo" xmlns="http://www.w3.org/2000/svg" viewBox="0 0 177 43">
        <g id="logogram" transform="translate(0, 1) rotate(0) "><path d="M0.301758 30.08L0.301761 10.08L10.3018 15.6355V24.5799L18.3018 29.08L26.3018 24.5799V15.6355L36.3019 10.08V30.08L18.3018 40.08L0.301758 30.08Z" fill="#192657"/><path fill-rule="evenodd" clip-rule="evenodd" d="M5.30177 12.8578L0.301758 10.08L18.3018 0.0799561L36.3019 10.08L31.3018 12.8578V27.58L18.3018 35.08L5.30176 27.58L5.30177 12.8578ZM30.7602 13.1587L26.3018 15.6355V15.58L18.3018 11.0799L10.3018 15.58V15.6355L5.84343 13.1587V27.2723L18.3018 34.4598L30.7602 27.2723V13.1587Z" fill="url(#paint0_linear_5558_2243)"/></g>
        <g id="logotype" transform="translate(43, 1)"><path fill="#111111" d="M15.07 12.86L7.28 12.86L7.28 8.54L28.08 8.54L28.08 12.86L20.30 12.86L20.30 34L15.07 34L15.07 12.86ZM34.40 34L29.27 34L29.27 14.89L34.23 14.89L34.23 18.23L34.44 18.23Q34.97 16.45 36.20 15.54Q37.44 14.64 39.05 14.64L39.05 14.64Q39.44 14.64 39.90 14.68Q40.35 14.72 40.71 14.81L40.71 14.81L40.71 19.39Q40.37 19.27 39.72 19.20Q39.07 19.13 38.49 19.13L38.49 19.13Q37.32 19.13 36.38 19.64Q35.44 20.14 34.92 21.04Q34.40 21.93 34.40 23.13L34.40 23.13L34.40 34ZM46.58 34.38L46.58 34.38Q44.77 34.38 43.33 33.74Q41.88 33.09 41.06 31.82Q40.23 30.55 40.23 28.65L40.23 28.65Q40.23 27.06 40.82 25.98Q41.41 24.91 42.42 24.26Q43.44 23.61 44.73 23.27Q46.02 22.93 47.44 22.79L47.44 22.79Q49.10 22.62 50.11 22.47Q51.13 22.33 51.60 22.01Q52.07 21.70 52.07 21.08L52.07 21.08L52.07 20.99Q52.07 20.17 51.73 19.61Q51.39 19.05 50.72 18.75Q50.05 18.45 49.08 18.45L49.08 18.45Q48.09 18.45 47.35 18.75Q46.62 19.05 46.16 19.54Q45.70 20.04 45.47 20.65L45.47 20.65L40.77 19.87Q41.27 18.21 42.41 17.05Q43.56 15.88 45.26 15.27Q46.96 14.65 49.08 14.65L49.08 14.65Q50.63 14.65 52.09 15.02Q53.54 15.39 54.69 16.16Q55.85 16.93 56.52 18.16Q57.20 19.39 57.20 21.13L57.20 21.13L57.20 34L52.34 34L52.34 31.35L52.17 31.35Q51.71 32.24 50.94 32.91Q50.17 33.59 49.09 33.98Q48.00 34.38 46.58 34.38ZM48.04 30.77L48.04 30.77Q49.25 30.77 50.16 30.29Q51.08 29.81 51.59 28.99Q52.10 28.17 52.10 27.16L52.10 27.16L52.10 25.10Q51.88 25.27 51.42 25.40Q50.96 25.54 50.40 25.64Q49.83 25.75 49.28 25.83Q48.74 25.92 48.31 25.97L48.31 25.97Q47.37 26.10 46.65 26.41Q45.93 26.72 45.54 27.22Q45.15 27.73 45.15 28.51L45.15 28.51Q45.15 29.25 45.52 29.75Q45.90 30.26 46.54 30.51Q47.18 30.77 48.04 30.77ZM67.84 34.38L67.84 34.38Q64.95 34.38 62.86 33.14Q60.77 31.90 59.63 29.68Q58.49 27.47 58.49 24.53L58.49 24.53Q58.49 21.56 59.63 19.35Q60.77 17.13 62.86 15.89Q64.95 14.65 67.84 14.65L67.84 14.65Q69.53 14.65 70.97 15.10Q72.40 15.54 73.52 16.36Q74.63 17.18 75.34 18.36Q76.06 19.54 76.34 21.01L76.34 21.01L71.57 21.90Q71.41 21.15 71.09 20.56Q70.76 19.97 70.30 19.55Q69.84 19.13 69.23 18.91Q68.63 18.69 67.89 18.69L67.89 18.69Q66.53 18.69 65.59 19.42Q64.66 20.16 64.19 21.47Q63.72 22.79 63.72 24.52L63.72 24.52Q63.72 26.22 64.19 27.53Q64.66 28.84 65.59 29.59Q66.53 30.34 67.89 30.34L67.89 30.34Q68.63 30.34 69.24 30.11Q69.86 29.88 70.34 29.45Q70.82 29.01 71.14 28.39Q71.47 27.78 71.60 27.01L71.60 27.01L76.37 27.88Q76.10 29.40 75.38 30.59Q74.66 31.78 73.55 32.63Q72.44 33.49 71.00 33.93Q69.55 34.38 67.84 34.38ZM85.75 24.48L82.26 28.41L82.26 22.24L83.03 22.24L89.29 14.89L95.22 14.89L86.96 24.48L85.75 24.48ZM82.74 34L77.62 34L77.62 8.54L82.74 8.54L82.74 34ZM95.58 34L89.54 34L83.80 25.63L87.24 21.99L95.58 34ZM100.77 34L95.64 34L95.64 14.89L100.77 14.89L100.77 34ZM98.21 12.40L98.21 12.40Q97.04 12.40 96.22 11.63Q95.40 10.86 95.40 9.77L95.40 9.77Q95.40 8.67 96.22 7.90Q97.04 7.13 98.21 7.13L98.21 7.13Q99.37 7.13 100.20 7.90Q101.03 8.66 101.03 9.77L101.03 9.77Q101.03 10.86 100.20 11.63Q99.37 12.40 98.21 12.40ZM101.01 14.89L113.48 14.89L113.48 18.81L101.01 18.81L101.01 14.89ZM109.48 34L104.37 34L104.37 13.42Q104.37 11.39 105.19 10.04Q106.00 8.69 107.40 8.01Q108.80 7.34 110.58 7.34L110.58 7.34Q111.79 7.34 112.79 7.54Q113.79 7.73 114.25 7.87L114.25 7.87L113.33 11.73Q113.00 11.65 112.57 11.56Q112.13 11.48 111.62 11.48L111.62 11.48Q110.46 11.48 109.97 12.03Q109.48 12.59 109.48 13.59L109.48 13.59L109.48 34ZM114.37 40.77L114.37 40.77L115.55 36.91L116.18 37.06Q117.21 37.33 118.01 37.21Q118.81 37.09 119.30 36.56Q119.79 36.03 119.89 35.08L119.89 35.08L120.03 34.05L112.85 14.89L118.30 14.89L121.51 24.81Q122.09 26.69 122.46 28.57Q122.83 30.45 123.31 32.50L123.31 32.50L122.11 32.50Q122.57 30.45 123.03 28.56Q123.50 26.67 124.11 24.81L124.11 24.81L127.46 14.89L132.84 14.89L124.73 36.26Q124.14 37.79 123.24 38.92Q122.33 40.05 120.98 40.67Q119.63 41.28 117.72 41.28L117.72 41.28Q116.69 41.28 115.80 41.14Q114.92 40.99 114.37 40.77Z"/></g>
        <defs xmlns="http://www.w3.org/2000/svg">
<linearGradient id="paint0_linear_5558_2243" x1="5.30176" y1="7.85773" x2="32.3018" y2="7.85774" gradientUnits="userSpaceOnUse">
<stop stop-color="#64C2DB"/>
<stop offset="0.307292" stop-color="#7476ED"/>
<stop offset="0.604167" stop-color="#C994DF"/>
<stop offset="1" stop-color="#E56F8C"/>
</linearGradient>
</defs>
      </svg>
    